<?xml version="1.0" encoding="UTF-8"?>
<svg version="1.1" viewBox="0 0 1600 1126" width="1280" height="1280" xmlns="http://www.w3.org/2000/svg">
<path transform="translate(747,119)" d="m0 0h63l36 3 30 4 37 7 36 9 35 11 30 11 28 12 25 12 22 11 24 14 20 12 15 10 23 16 21 16 16 13 13 11 10 9 8 7 17 16 19 19 7 8 7 7 9 11 10 11 8 10 14 18 14 19 24 36 16 27 13 24 8 16 12 25 13 32 85 1v128h-51l3 20 3 35 1 36-1 30-3 34-5 33-6 29-2 8v5l5 6 3 8v21l-7 6-7 3 15 2 2 1v2l-2 1-35 3-67 3-116 3-151 2-134 1h-378l-119-1-150-2-88-2-81-3-42-3-9-1-1-2 1-2 15-2-11-6-2-3v-22l5-10 3-4-2-11-7-34-5-35-2-22-1-18v-43l2-30 4-33 5-29 7-31 10-35 13-38 10-24 15-33 10-20 13-23 10-17 14-22 14-20 14-19 14-18 11-13 9-11 15-16 11-12 25-25 8-7 13-12 11-9 14-12 13-10 19-14 20-14 22-14 22-13 22-12 21-11 31-14 28-11 38-13 37-10 33-7 30-5 38-4z" fill="#CFF0FD"/>
<path transform="translate(1229,408)" d="m0 0h41l3 3 2 5 6 4 1 2v12h28v5l-9 5-7 8-4 9-3 11-4 3v15l27 1-1 5-10 6-6 8-4 12-2 7-4 2-1 16h28v5l-8 4-5 4-7 14-3 11-3 2h-20v18h-12v323l10-4h9l7 3 2-5 7-7 10-4h7l10 3 9 9 7-1h8l11 5 7 7 4 8 10-4 9-1 2-3h2v-2l2-1 1-216h7v210l6-3h8l9 3 9 8 2 5 6-1h8l12 6 6 8 3 8v21l-7 6-7 3 15 2 2 1v2l-2 1-35 3-67 3-116 3-151 2-134 1h-378l-119-1-150-2-88-2-81-3-42-3-9-1-1-2 1-2 15-2-11-6-2-3v-22l5-10 4-5 9-5h9l2-4 11-8 3-1h12l7 2 3 2v2l4 2 4 5 1 2 5-1 6-2h7l4 1-1-181-32-1-5-3-12-21-15-26-9-15-1-9 11-19 6-11 9-15 1-3h2l2-6 7-11 1-1 12-1h58l11 1 6 9 14 25 4 6 2-2 3-12 9-26 11-28 14-29 9-16 8-11 5-5 9-6h5l-1-2h-7l-3-5v-14l4-2 48-1 324-3h96l1 6v11l-6 2 1 2 17 7 25 14 13 8 10 7 16 12 11 9 14 12 16 15 10 11v2h2l8 10 13 17 10 14 3 4v3l8 2 29 1 43 5 47 7 26 5 6 2 4 36 3 13 8 11 9 6 9 3h42l11 1 1 1 1 10 8 8 5 10 2 7v45l-2 9-6 5 2 21 2 9h2l1 3v10l-6 16-8 13-6 8 1 3 5 4 3 5v2l8-3h13l8 3 3 2 2-5v-332l-24-1-5-5-1-12-5-5-5-16-6-9-11-6v-5h28l-1-16-5-5-5-16-6-8-6-4-5-3v-4l27-1v-15l-5-5-3-12-5-9-8-7-6-3v-5h28v-13l3-4 5-2 2-5z" fill="#FA8F1F"/>
<path transform="translate(1229,408)" d="m0 0h41l3 3 2 5 6 4 1 2v12h28v5l-9 5-7 8-4 9-3 11-4 3v15l27 1-1 5-10 6-6 8-4 12-2 7-4 2-1 16h28v5l-8 4-5 4-7 14-3 11-3 2h-20v18h-12v323l10-4h9l7 3 2-5 7-7 10-4h7l10 3 9 9 7-1h8l11 5 7 7 4 8 10-4 9-1 2-3h2v-2l2-1 1-216h7v210l6-3h8l9 3 9 8 2 5 6-1h8l12 6 6 8 3 8v21l-7 6-7 3 15 2 2 1v2l-2 1-35 3-67 3-116 3-151 2-134 1h-378l-119-1-150-2-88-2-81-3-42-3-9-1-1-2 1-2 15-2-11-6-2-3v-22l5-10 4-5 9-5h9l2-4 11-8 3-1h12l7 2 3 2v2l4 2 4 5 1 2 5-1 6-2h7l4 1v-181h8v186h2l1-5 7-8 5-4 7-2h7l11 2 9 8 10 5 15 3 12 1 50 1-3-13v-17l4-16 7-14 7-9 9-9 14-9 11-4 10-2h20l15 4 14 7 11 9 7 7 7 11 5 11 3 16v14l-3 12h34l-1 7-3 8-9 7-3 3-2 5v8l4 6 4 3h113l8-6 3-4-3-10-5-6-6-4-3-4-3-8v-4l23-1 280-2 3-1-3-13v-19l3-12 5-12 9-13 10-10 13-8 13-5 10-2h15l15 3 12 5 11 7 8 7 8 10 7 14 4 14v23l-2 9 83-1 43-1 16-2 10-4 3-1 7 6 3 5v2l8-3h13l8 3 3 2 2-5v-332l-24-1-5-5-1-12-5-5-5-16-6-9-11-6v-5h28l-1-16-5-5-5-16-6-8-6-4-5-3v-4l27-1v-15l-5-5-3-12-5-9-8-7-6-3v-5h28v-13l3-4 5-2 2-5z" fill="#3E495B"/>
<path transform="translate(191,757)" d="m0 0h8v186h2l1-5 7-8 5-4 7-2h7l11 2 9 8 10 5 15 3 12 1 50 1-3-13v-17l4-16 7-14 7-9 9-9 14-9 11-4 10-2h20l15 4 14 7 11 9 7 7 7 11 5 11 3 16v14l-3 12h34l-1 7-3 8-9 7-3 3-2 5v8l4 6 4 3h113l8-6 3-4h268l54 1 16 6 5 1h23l17-5 5-2 119 1 59 1v5h123l1-2h28l1 6 92-1 14-1 17 2 2 1v2l-2 1-35 3-67 3-116 3-151 2-134 1h-378l-119-1-150-2-88-2-81-3-42-3-9-1-1-2 1-2 15-2-11-6-2-3v-22l5-10 4-5 9-5h9l2-4 11-8 3-1h12l7 2 3 2v2l4 2 4 5 1 2 5-1 6-2h7l4 1z" fill="#3E485B"/>
<path transform="translate(1413,550)" d="m0 0h2l11 26 4 10 85 1v128h-51l3 20 3 35 1 36-1 30-3 34-5 33-6 29-3 11-4-1-8-4h-14l-6-8-9-6-5-1h-8l-6 2-1-77v-91l1-42h-7v216l-3 1v2h-2l-2 4-9 1-8 4-3-1-5-9-6-6-10-4h-8l-7 1-1-3-4-2-1-3-10-3-3-1h-7l-10 4-7 7-2 4-4-1-7-1-8 1-4 2h-3v-323h12v-18l20-1 2-1 2-7h2l3 9 8 4v1h-32l1 117h238l1-117h-124v-1h37l1-3h2l1-5-13-31z" fill="#F2FBFE"/>
<path transform="translate(482,540)" d="m0 0h40l11 4 7 6 5 8 4 17 10 57 8 42v7l-4 4-7 1-243 2-5-2-2-3v-29l3-24 6-25 7-21 12-25 6-8 7-6 8-3 52-1z" fill="#D0E6FA"/>
<path transform="translate(1269,592)" d="m0 0h240v117l-1 1h-238l-1-1z" fill="#F8F9FB"/>
<path transform="translate(967,845)" d="m0 0h15l15 3 12 5 11 7 8 7 8 10 7 14 4 14v23l-2 8-6 15-8 12-10 10-8 6-15 6-11 3h-23l-14-4-7-3-54-1-267-1-5-12-12-10-4-10v-4l23-1 280-2 3-1-3-13v-19l3-12 5-12 9-13 10-10 13-8 13-5z" fill="#3E485B"/>
<path transform="translate(621,979)" d="m0 0h268l54 1 16 6 5 1h23l17-5 5-2 119 1 59 1v5h123l1-2h28l1 6 92-1 14-1 17 2 2 1v2l-2 1-35 3-67 3-116 3-151 2-134 1h-378l-119-1-150-2-88-2-81-3-42-3-9-1-1-2 1-2 33-2 28-1v4l82-1-1-6 9-1 115-2 7 1 13 6 16 4h19l12-3 21-10h42l4 6 4 3h113l8-6z" fill="#9DACB5"/>
<path transform="translate(747,119)" d="m0 0h63l36 3 30 4 37 7 36 9 35 11 30 11 28 12 3 2v2l7 2 2 3v8l6 2 6 3h10l6 3 3 2v2h2l4 10 5 5 7 3 10 6 3 5 3 8 4 2v5l-2 2h-9l-5-3-4-4-7-3-7-5h-14l-3-2v-2l-8-1-3-3-9-3-3-5-5-3v-2l-6-2-2-2h-3l-8-4-2 1v-2l-5-1v-2l-3 1-4-3v-2h-3l-1-2-10-1-9 1-7-1-1-4h-2v-3h-16l-1-2-7-1-1-3-3-1v-2l-4 1v-2h-5l-8-4-5-1-7 1-5-2-5-1-3-2v-2l-5-2-5-1-4 2h-6l-4 1-7-1-5-3-10-5h-12l-4-3-6-2-2-2-4 1-8-1-4 2-1 2-6-2-2-1 1-3-4-1-1 3-9 1v-2h-3l-1 2-6-1-3 1h-3l-9-1h-17l-9 1h-14l-1 1-14 2 1-2-3-1v3l-15 1-13 4-10 5-7 1-3-1-1 2-9-1-3 1-5-4-7 2-5 1-9 4-8 4-10 4-6 1v2h-2l-1 2-5 2-5 3-7-1h-6l-2 5-4 2-3 4h-2l-2 4-10 2-7 1-2-2-11-1-7 2-3 5-4 1-4-1-3 1v2l-8 3-1 3-8 3-4-1-1-4-9 4-6 3-5 5-7 4h-2l-2 7-5 2-2 5-12 5-5-1 1-8 1-2 4 1 2 1 1-7 2-2h11l1-6 7-8 4-6 10-10 12-7 9-5 13-9 7-6 5-3 3-6 31-12 37-12 38-10 41-8 30-4z" fill="#BDEEFE"/>
<path transform="translate(112,632)" d="m0 0 1 3v7l6 2 2 4 5-1 3 7h3l-2 5-10 18-3 5 1 9 14 24 12 21 10 17 4 2 32 1 1 1v181h-11l-8 3-4-1-4-6-4-3v-2l-10-3h-12l-8 4-7 6-1 2-9 1-6 4h-3l-4-14-7-36-4-29-2-22-1-18v-43l2-30 4-33 5-29 7-31 7-25z" fill="#FCFCFC"/>
<path transform="translate(1192,555)" d="m0 0 4 1 5 4 6 12 4 13 4 3 1 12 1 3 3 1 24 1 1 1v332l-3 5-6-2-5-2h-13l-4 2h-4l-6-9-4-3 2-5 8-11 7-14 3-9v-13h-2l-3-9-2-21 6-5 2-9v-45l-3-9-5-9-7-7-1-10-19-1h-34l-11-4-10-8-6-9-4-20-2-20v-9l-44-8-42-6-36-4-29-1-8-3-3-6-7-9-10-14-9-11-5-6v-2h-2l-9-11-2-3 5 1 8 7 16 17 15 14 5 5 11 7 13 3 21 3 6 2 15 2 22 1h18l2 1h12l9 2 17 1 14 4h7l4-1 2 1v2h13l8 3 3 2 8-1 7 5v2l4-1 1-4h-2v-5l4-2 7 1 4 5 9 2 5 2 4 3h11v-2l8-3h5l1-14 2-13 1-26 2-11-3-3-18-2-5-3-2-3-5-19-7-16-6-9z" fill="#EEF8FB"/>
<path transform="translate(167,615)" d="m0 0h58l11 1 6 9 14 25 8 14 9 15 2 5-1 6-8 16-10 17-15 25-6 7-3 1-42 1-32-1-5-3-12-21-15-26-9-15-1-9 11-19 6-11 9-15 1-3h2l2-6 7-11 1-1z" fill="#E43E41"/>
<path transform="translate(743,538)" d="m0 0h30l15 3 12 5 11 7 13 11 10 9 8 7 12 13 9 11 6 7 13 20 10 16 8 16 3 9-1 7-3 4-79 1h-126l1-14 7-3 10-2h8l15 3 10 5v3l-4 1-21 1 93 1-7-12-9-10-10-9-15-10-16-8-9-1-10 1-10-2-1-1v-5l5-4 5-9 4-9 1-11 4-11 1-5v-17h2l-3-8-1-7z" fill="#D0E6FA"/>
<path transform="translate(1384,711)" d="m0 0h10l1 4-2 1-7-1v216l-3 1v2h-2l-2 4-9 1-8 4-3-1-5-9-6-6-10-4h-8l-7 1-1-3-4-2-1-3-10-3-3-1h-7l-10 4-7 7-2 4-4-1-7-1-8 1-6 2v-164h1l3 15 4 30 1 6h8l15-5h12l3 1 14 1 11 4 6 1 26 2 5-3 8-12 5-3 4-18 4-30v-23l-1-11-1-1v-5z" fill="#FBFCFC"/>
<path transform="translate(1288,578)" d="m0 0h2l3 9 8 4v1h-32l1 117 114 1v2l-2 1v5l1 1 1 11v23l-4 30-4 18-6 4-8 12-5 3-26-2-12-3-5-2-14-1-3-1h-12l-15 5h-6l-3-3-3-17-3-23-1-3-1 158h-1v-323h12v-18l20-1 2-1z" fill="#F1FBFE"/>
<path transform="translate(191,757)" d="m0 0h8v186h2l1-5 7-8 5-4 7-2h7l11 2 9 8 10 5 15 3 12 1 51 1 8 16 6 8 11 12 2 2-4 1-124 2 1 6-2 1h-80v-4l-8 1-20 1h-15l-14-7-2-3v-22l5-10 4-5 9-5h9l2-4 11-8 3-1h12l7 2 3 2v2l4 2 4 5 1 2 5-1 6-2h7l4 1z" fill="#459D24"/>
<path transform="translate(1386,715)" d="m0 0h7v210l6-3h8l9 3 9 8 2 5 6-1h8l12 6 6 8 3 8v21l-7 6-10 4-13 1h-92l-1-6h-28l-1 2-1-5-8-4-12-5-36-1-1-4v-40l10-4h9l7 3 2-5 7-7 10-4h7l10 3 9 9 7-1h8l11 5 7 7 4 8 10-4 9-1 2-3h2v-2l2-1z" fill="#61B944"/>
<path transform="translate(904,940)" d="m0 0 5 1 9 17 11 12 11 8 2 2h-53l-267-1-5-12-12-10-4-10v-4l23-1z" fill="#459D24"/>
<path transform="translate(112,632)" d="m0 0 1 3v7l6 2 2 4 5-1 3 7h3l-2 5-10 18-3 5 1 9 14 24 12 21 10 17 4 2 32 1 1 1v102h-1l-1-82-2 8-2 23-4 13-7 3-6 8-5 3h-10l-11-4-10-7-9-6-7-6-17-9-6-10-3-14-1-8v-30l6-42 8-37 8-29z" fill="#F2FBFE"/>
<path transform="translate(1199,928)" d="m0 0 8 6 3 5v2l8-3h13l8 3 3 2 2-4 1 26-1 7-37 2-15 5-5 5v-2h-59l-98-1-20-1 5-4 9-7 7-7 9-15 4-11h84l43-1 16-2 10-4z" fill="#469E25"/>
<path transform="translate(1468,765)" d="m0 0h1l1 5 1 36-1 30-3 34-5 33-6 29-3 11-4-1-8-4h-14l-6-8-9-6-5-1h-8l-6 2v-138l5 5 6 14 7 7 6 4 12 1 10 7h6l4-1 2-5 8-19 7-17z" fill="#FCFCFC"/>
<path transform="translate(1119,682)" d="m0 0 13 2 25 7 18 8 10 9 8 11 7 13 3 3 4 9 9 16 4 8 5 8 4 9 3 6v2h3l3-10 4-11h1l1 36v131l-2 4-6-2-5-2h-13l-4 2h-4l-6-9-4-3 2-5 8-11 7-14 3-9v-13h-2l-3-9-2-21 6-5 2-9v-45l-3-9-5-9-7-7-1-10-19-1h-34l-11-4-10-8-6-9-4-20-2-20z" fill="#FCFCFC"/>
<path transform="translate(641,539)" d="m0 0h37l-2 4-8 6-2 6v15l2 5 2 1 2 10 4 6 2 1v2l3 1-1 3-6-4-2-1 1 4 10 8 11 11 6 5v6l-5 5-2 5-2-3h-9l-9 6-10 8-13 12-8 8-6 9-4 4-5-3v-2h-2l-3-5-3-10-3-8-6-22-2-13-2-7-4-25 1-13 3-10 6-10 8-8 13-6z" fill="#D0E6FA"/>
<path transform="translate(965,821)" d="m0 0h16l13 2 17 5 16 8 11 9 9 9 9 12 8 15 4 10 3 19v26h57v1h-83l1-9v-23l-5-17-8-14-9-10-10-7-14-7-11-3-7-1h-15l-16 4-16 8-12 11-9 12-5 11-3 9-1 6v19l1 8-3 5h-10l-11-3-1-2v-33l2-12 7-15 8-14 9-11 9-7 11-8 11-6 10-4z" fill="#EB7D11"/>
<path transform="translate(397,827)" d="m0 0h17l17 4 11 4 14 7 12 9 11 11 9 14 7 15 4 18v31l1 2h-27l2-12v-14l-3-16-8-16-7-9-11-10-14-8-13-4-5-1h-20l-16 4-12 6-10 8-8 8-8 13-5 13-2 10v17l2 13h-50v-1l28-1-3-1-2-7 1-20 2-16 4-12 10-19 11-12 12-11 11-7 12-5 10-3z" fill="#EB7D11"/>
<path transform="translate(1386,715)" d="m0 0h7v210l6-3h8l9 3 9 8 2 5 6-1h8l12 6 6 8 3 8v21l-7 6-10 4-13 1h-92v-8l14-8 8-1h24l-1-43z" fill="#3F4D5A"/>
<path transform="translate(751,474)" d="m0 0h29l6 4 5 5 1 6h2v4l2 1-281 3-139 1-51 1 1-2 10-2-3-2 5-2v-2l-3-1 1-2 6-2 17-2 37 1h19l44-1 19-1h20l22-1 21-2 6-1 12 1-2 2-4 1-1 1 38-1h31l-12-3-1-2 12 1h20l13 4 13 2-2 2-10 2 31 2h24l15-2 7-2-6-1-4 1h-8l2-2 22-4 5-3z" fill="#CFE5F8"/>
<path transform="translate(747,628)" d="m0 0 9 1 21 11 12 9 10 9 8 9 6 10v2h-93l-3-2 24-1 4-2-10-5-15-3h-8l-10 2-7 2-1 16-14 6-9 4-6 3-7 2h-18l-3-1v-2h-3l-3-6 1-9 6-10 11-12 9-9 11-9 11-8 2-1h9l6 9 8 5 7 2h12l7-3 6-8 1-9 1-1z" fill="#206478"/>
<path transform="translate(199,756)" d="m0 0h32l-2 9v3l12 6 4 6 1 4 1 31v30l-2 7-7 8-14 4v13l-8 2-2 2 1 6 3 22 7 1h5l6 11 1 5-16-1-8 3-8 7-4 8h-2z" fill="#FCFCFC"/>
<path transform="translate(966,875)" d="m0 0h17l11 4 9 6 7 7 5 10 3 11v9l-3 12-6 11-7 7-10 6-10 3h-15l-12-4-9-6-8-9-5-10-2-9v-12l4-12 6-9 8-8 10-5z" fill="#F8F9FA"/>
<path transform="translate(400,880)" d="m0 0 12 1 9 3 10 6 8 9 5 10 2 8v13l-4 13-7 10-8 7-5 3-9 3-6 1h-9l-12-3-10-6-6-5-7-11-3-9v-19l5-13 9-10 8-6 11-4z" fill="#F8F9FA"/>
<path transform="translate(507,942)" d="m0 0h85l9 1 5 14 5 4 7 6 4 10-2 4-5 6-5 3h-113l-7-6-2-4v-8l4-8 10-7 3-8z" fill="#E23E41"/>
<path transform="translate(191,757)" d="m0 0h1v182l-1 36-23 1-11 9-2 6h79v1h-80v-4l-8 1-20 1h-15l-14-7-2-3v-22l5-10 4-5 9-5h9l2-4 11-8 3-1h12l7 2 3 2v2l4 2 4 5 1 2 5-1 6-2h7l4 1z" fill="#61B944"/>
<path transform="translate(717,550)" d="m0 0 9 1 7 8 4 6v2h2l4 11v8l-1 6-2 11-6 12-5 6-2 1v5l10 2 1 1v9l-6 8-4 3-4 1h-12l-11-4-7-6-1-7 6-6v-6l-13-12-9-8-6-5 1-4 8 5-1-20 2-1v2l2-1 1-3 1-17 11-2 16-5z" fill="#F9CE7E"/>
<path transform="translate(1123,683)" d="m0 0 9 1 25 7 18 8 10 9 8 11 8 16 3 9v3h-54l-9-4-8-7-5-10-3-16-2-19z" fill="#FDB43B"/>
<path transform="translate(1399,922)" d="m0 0h8l9 3 9 8 2 5 6-1h8l12 6 6 8 3 8v21l-7 6-10 4h-5l-4-8-12-6-3-1-28-1v-49z" fill="#62B945"/>
<path transform="translate(743,538)" d="m0 0h30l15 3 12 5 11 7 13 11 10 9 8 7 12 13 9 11 6 7 13 20 10 16 8 16 3 9-1 7-3 4-79 1h-126l1-14 7-3 10-2h8l15 3 10 5v3l-4 1-21 1h95l4 1h22l9-1 1-2v3l6-1 3-10 5 1 20 8 12 1-1-2-13-4-1-2 11 1 2 1-4-12-8-14v-3l-2-1-4-9-4-6-5-5-1-3-3-3v-2l-3-1v-3h-2l-1-4-3-1v-3l-3-1-4-7-8-7-8-8-8-7-9-7v-2l-5-2-8-6-16-7-7-2-9-1h-13l-12 1z" fill="#F0F9FD"/>
<path transform="translate(221,924)" d="m0 0h7l11 2 9 8 10 5 15 3 12 1 51 1 8 16 2 5h-12l-16-1v2l-3 1-3-4-9-3-24-3-22-5-16 2-13 3-21 3-8 1v-18h2l1-5 7-8 5-4z" fill="#61B943"/>
<path transform="translate(192,757)" d="m0 0h7l1 190-1 28h18l9 1 3 5 4 2 1 4h2v4h-81v-5l11-10 2-1h23v-36z" fill="#3E485B"/>
<path transform="translate(707,523)" d="m0 0 16 2 10 4 7 5 5 7 3 15h-2l1 8v9l-3 9-2-4-3-11h-2l-7-11-4-4-9-1-30 8-2-1v17l-2 4h-3l1 16h-3v-2l-3-1-4-6-1-3v-7l-3-1-2-5v-15l3-7 9-7 4-6 6-5 11-5z" fill="#974040"/>
<path transform="translate(1252,943)" d="m0 0h1v11l9 3h8l10-4 15-2 10 1 11 2 2 2 26 3 9 3 4 3 13-1h14l1-10h1v20l-24 1-10 2-11 6-1 6-1-4h-28l-1 2-1-5-8-4-12-5-36-1-1-4z" fill="#459D24"/>
<path transform="translate(399,895)" d="m0 0h10l9 4 8 7 3 4 2 6v11l-3 9-7 8-7 4-4 1h-14l-10-6-7-9-2-6v-11l3-9 10-10z" fill="#3E495B"/>
<path transform="translate(1025,423)" d="m0 0h8l21 12 8 6 5 2 1 5-9 3h-131l-1-4 5-9 2-2h11l6 3h9l10-6 4-1h9l9 4 5 3 8 1 14-14z" fill="#F3FCFE"/>
<path transform="translate(969,890)" d="m0 0h13l9 4 5 4 5 7 2 6v11l-6 12-7 6-9 4h-10l-8-3-8-7-4-5-2-6v-14l5-9 9-8z" fill="#3E495B"/>
<path transform="translate(751,232)" d="m0 0 9 3 14 9 10 7 7 4 6-1 3-2h7l4 3-1 4-2 1-9 1h-150l1-7 4-5 3-2h7l6 3 12 1 5-3 9-5h9l15 7h11l2-4 10-9 5-4z" fill="#F3FCFE"/>
<path transform="translate(152,957)" d="m0 0h13l5 2 2 2 7 2 12 1v11l-23 1-11 9-2 6h79v1h-80v-4l-8 1-20 1h-15l-14-7-2-3v-5l2-5 12-4 20-3 15-5z" fill="#479F26"/>
<path transform="translate(1269,592)" d="m0 0h240v117l-1 1h-238l-1-1zm3 3v112h234v-112z" fill="#37474D"/>
<path transform="translate(1152,778)" d="m0 0h8l9 4 6 5 5 10v15l-4 8-5 6-6 4-4 1h-10l-10-4-7-8-3-7v-13l4-10 5-6 8-4z" fill="#FEB53C"/>
<path transform="translate(167,615)" d="m0 0h58l11 1 6 9 14 25 8 14 9 15 2 5-1 6-8 16-10 17-15 25-6 7-3 1-42 1-32-1-5-3-12-21-15-26-9-15-1-9 11-19 6-11 9-15 1-3h2l2-6 7-11 1-1zm-10 5-6 9-30 52-1 7 15 26 3 5 15 26 1 2h2l2 4h76l15-26 21-36v-7l-14-25-21-35-2-2z" fill="#E33F41"/>
<path transform="translate(514,919)" d="m0 0h79l3 8 4 13v2l2 1h-90l-4-1 4-16z" fill="#F6F7F8"/>
<path transform="translate(407,541)" d="m0 0h93v1l-15 1-5 1-28 1h-16l-35 1-19 1h-22l-3-1-9 3-1 3-5 5-6 9-4 8-6 13-2 6-2 9-2 7-4 17-2 17-1 12-1 27 33 1 62 1h23l26 1v1l-31 1-112 1-5-2-2-3v-29l3-24 6-25 7-21 12-25 6-8 7-6 8-3z" fill="#EFF9FD"/>
<path transform="translate(1413,550)" d="m0 0h2l11 26 4 10 85 1v128h-51l1 8-2-1-3-10-1-2 49-1 1-117h-124v-1h37l1-3h2l1-5-13-31z" fill="#F8FAFC"/>
<path transform="translate(1199,928)" d="m0 0 8 6 3 5v2l4 1-24 9h-25l-10-2-16-4-17-2-5-2v-3h-35v2l-8 3-16 1-14 5h-2l-2 4-3 1 2-5 5-13h84l43-1 16-2 10-4z" fill="#60B943"/>
<path transform="translate(1244,426)" d="m0 0h9l9 4 5 6 2 4v14l-6 10-8 5-8 1-10-3-5-3-4-6-1-3v-14l4-7 6-5z" fill="#E13E41"/>
<path transform="translate(1244,489)" d="m0 0h9l10 5 5 7 2 6v8l-5 10-8 6-9 2-9-2-7-5-4-6-1-4v-11l4-8 7-6z" fill="#FDB137"/>
<path transform="translate(1242,552)" d="m0 0h10l8 3 5 4 4 8v13l-3 7h-2v2h-2l-2 4-6 2h-9l-9-3-5-4-4-8v-12l4-8 8-7z" fill="#459D24"/>
<path transform="translate(527,876)" d="m0 0h54l7 24h-68l6-22z" fill="#F4F6F6"/>
<path transform="translate(298,758)" d="m0 0 2 1v44l-2 1h-19l-1 2v-2l-9-1-1-1v-34l1-9z" fill="#EB7D11"/>
<path transform="translate(520,900)" d="m0 0h68l5 18v1h-78l2-11z" fill="#E43E42"/>
<path transform="translate(473,942)" d="m0 0h34l-1 7-3 8-9 7-3 3-2 5-1 9h-38l-3-2 9-7 9-14 5-10z" fill="#459D24"/>
<path transform="translate(409,412)" d="m0 0h6l8 8v2l5 2h7l8-3h15l6 3h19l5 4-2 5-91 1h-24l-1-2 1-2 15-3 16-11z" fill="#F3FCFF"/>
<path transform="translate(1415,957)" d="m0 0 8 1 9 4 2 1 15 2 10 6 3 4v5l-7 6-10 4h-5l-4-8-12-6-3-1-28-1v-13z" fill="#459D24"/>
<path transform="translate(157,620)" d="m0 0h76l4 5 8 14 13 22 12 21v7l-15 26-21 36h-76l-2-4h-2l-14-25-7-12-13-22 1-7 16-28 15-26zm11 2-10 1-8 13-10 18-15 25-2 4 1 6 13 23 15 26 6 10 4 1h69l4-4 15-27 10-17 8-15-2-6-9-15-14-25-10-17-18-1z" fill="#D8E4E9"/>
<path transform="translate(712,665)" d="m0 0h8l15 3 10 5v3l-4 1-21 1 91 1 7 2v1l-23 2h-101l1-14 7-3z" fill="#EFF9FD"/>
<path transform="translate(641,539)" d="m0 0h37l-2 4-6 4h-3v-2l-27-1-4 1-5 1-3 2-5 1-1 3-6 5-7 13v17l1 11 3 17 9 36 7 20 2 3 5 1-1 5-3 2-5-3v-2h-2l-3-5-3-10-3-8-6-22-2-13-2-7-4-25 1-13 3-10 6-10 8-8 13-6z" fill="#F1F4F4"/>
<path transform="translate(573,856)" d="m0 0h2l5 16v4h-53l5-19z" fill="#E33E41"/>
<path transform="translate(1290,610)" d="m0 0h14l9 3 5 6 1 3v12l-4 6-3 3-10 2h-12z" fill="#313B4D"/>
<path transform="translate(507,541)" d="m0 0h19l8 4 6 5 5 8 4 17 10 57 8 42v7l-4 4h-47v-1l28-1 12-3h5l-10-57-9-53-2-11-6-9-3-1-2-3-2 1-10-4-10-1z" fill="#D2F0FC"/>
<path transform="translate(202,669)" d="m0 0h10l6 3 4 8v11l-4 8-5 3h-12l-5-3-4-5-1-3v-10l3-7 5-4z" fill="#EAEEF1"/>
<path transform="translate(540,833)" d="m0 0h29l6 21v2l-2 1h-40l2-9 3-13z" fill="#F5F7F7"/>
<path transform="translate(1269,592)" d="m0 0h237v1h-236l2 3v111h64v1l158 1v1h-224l-1-1z" fill="#5F935B"/>
<path transform="translate(1326,610)" d="m0 0h16l6 4 2 3v7l-5 5-3 1 8 13v2h-6l-8-13-5-2v15h-5z" fill="#30394B"/>
<path transform="translate(1119,682)" d="m0 0 3 1 2 8 3 26 2 9 5 10 8 7 8 3h55l1 7-20-1h-34l-11-4-10-8-6-9-4-20-2-20z" fill="#F9FBFC"/>
<path transform="translate(1270,593)" d="m0 0h235v2l-233 1-1 110h-1z" fill="#2F364C"/>
<path transform="translate(550,804)" d="m0 0h9l3 7 6 21v1l-10 1h-16l-2-1 2-10 6-17z" fill="#E33E41"/>
<path transform="translate(678,721)" d="m0 0h28l4 2 1 9-1 2-18 1h-26l-2-4 1-9z" fill="#EB7D11"/>
<path transform="translate(225,791)" d="m0 0 8 1 1 11v50h-11v-11l1-7z" fill="#FCB948"/>
<path transform="translate(531,726)" d="m0 0h20l3 5-1 7-2 1-25 1h-12l-7-2-1-5 1-5 5-1z" fill="#EB7D11"/>
<path transform="translate(860,668)" d="m0 0 5 1 20 8h17l-2 5-1 1-79 1h-21v-1l17-2-5-1 4-2 4 1h22l9-1 1-2v3l6-1z" fill="#F6F9FB"/>
<path transform="translate(199,756)" d="m0 0h32l-2 9v3l7 3v6l-9-4-16-5-5-5-1-5-5-1v186h-1z" fill="#D8E4EA"/>
<path transform="translate(1447,661)" d="m0 0 9 1 6 7v10l-3 5-5 4h-8l-5-3-3-4v-12l5-6z" fill="#F7F9FA"/>
<path transform="translate(229,669)" d="m0 0h11l7 2 4 4v9l-4 5-2 1h-9v11l-1 1h-5l-2-3v-28z" fill="#E8ECEF"/>
<path transform="translate(1407,661)" d="m0 0 9 1 5 5 1 3v10l-6 7-3 1h-8l-5-5-2-3v-9l2-5 5-4z" fill="#F7F8F9"/>
<path transform="translate(641,539)" d="m0 0h37l-2 4-6 4h-3v-2l-27-1-4 1-5 1-3 2-5 1-1 3-6 5-7 13v17l1 10-2-1-1-6-4-1-1-2 1-13 3-10 6-10 8-8 13-6z" fill="#F1FAFD"/>
<path transform="translate(1468,609)" d="m0 0h7l7 3 5 5v3h-5v-2l-6-2-7-1-6 4-2 3v9l4 7 4 2 8-1 5-5 1-4h-13l-1-4h20v8l-8 9-4 2h-11l-5-3-5-5-2-6v-9l5-8 5-4z" fill="#34404D"/>
<path transform="translate(308,526)" d="m0 0h1v6l-3 7v5l2 1-4 4-4 2-2 3h-2l1 2 2 1-3 4-2 4-1-2h-2l-2 4-1 4-4 4h-3l1-7h-3l1-10 4-4 2-5 4-2 2-5 9-10 5-3z" fill="#F2FBFE"/>
<path transform="translate(376,497)" d="m0 0h98v1l-35 1-98 1v3l2 1-1 5-4 2-2 5 3 1-1 3-4-1h-7l-3-5v-14l4-2z" fill="#FEBC4D"/>
<path transform="translate(1391,735)" d="m0 0h1v150l-2-1-1-15-1-3v-109l1-5z" fill="#2C3349"/>
<path transform="translate(1152,778)" d="m0 0h8l9 4 6 5 5 10v15l-4 8-5 6-6 4-4 1h-10l-10-4-7-8-3-7v-13l4-10 5-6 8-4zm1 3-10 4-6 7-3 7v11l5 10 6 5 5 2h13l8-6 5-8 1-3v-11l-5-10-8-6-8-2z" fill="#F8FCFD"/>
<path transform="translate(1420,610)" d="m0 0h5l7 10 10 15 1-25h5v35h-5l-8-11-9-14-1 25h-5z" fill="#314049"/>
<path transform="translate(1405,657)" d="m0 0h11l6 4 5 6 1 3v9l-3 6-7 6-2 1h-13l-8-7-3-6v-9l4-7 6-5zm2 4-6 4-2 2-1 4v9l4 6 3 2h8l5-3 4-5v-10l-3-6-7-3z" fill="#333E4C"/>
<path transform="translate(1444,657)" d="m0 0h12l6 4 4 5 1 3v11l-3 6-5 4-4 2h-12l-9-8-2-4v-10l3-6 7-6zm3 4-6 4-3 4v12l5 6 3 1h8l7-6 1-3v-10l-6-7z" fill="#333F4C"/>
<path transform="translate(967,845)" d="m0 0h15l15 3 12 5 11 7 8 7 8 10 7 14 3 9v5l-2-2v-3h-2l-2-9-9-14-3-5-5-5-8-7-15-8-11-2v-2l-27 1-12 3-8 4-8 6-6 5-7 8-6 9-6 13-2 7h-2l2-9 5-12 9-13 10-10 13-8 13-5z" fill="#3C3346"/>
<path transform="translate(1295,614)" d="m0 0h10l5 3 4 5v9l-2 5-3 3-6 2h-8z" fill="#F4F7F8"/>
<path transform="translate(1359,657)" d="m0 0 5 1v14h17v-15h5v35h-5v-15h-17v15h-5z" fill="#2A3047"/>
<path transform="translate(147,669)" d="m0 0h10l3 1 1 4-2 2h-12l2 4 9 6 3 4v6l-4 5-2 1h-13l-3-3 1-4 2-1 4 1h7l-1-4-9-6-3-4v-6l4-5z" fill="#E9EDF0"/>
<path transform="translate(862,639)" d="m0 0h4l-1 11-2 9v4l16 6 9 4 9 3v2h-12l-25-10-2 10-1 1h-6l4-18 6-21z" fill="#405058"/>
<path transform="translate(1386,715)" d="m0 0h7v42h-1l-1-14-1 13-1 1-1 79-2 1z" fill="#435858"/>
<path transform="translate(394,851)" d="m0 0h20l15 4 14 7 11 9 7 7 7 11 4 10h-2l-7-13v-2l-3-1-4-6-11-9v-2l-6-2-8-5-7-2-9-1-6-2h-13l-16 3-12 6-10 9-12 12-8 16-2 2 1-7 6-11 7-9 9-9 14-9 11-4z" fill="#3D3346"/>
<path transform="translate(143,645)" d="m0 0 2 2-17 29-4 7 1 6 13 23 15 26 5 9 4 1 71 1v1l-75 1-2-4h-2l-14-25-7-12-13-22 1-7 20-35z" fill="#EEF2F0"/>
<path transform="translate(1294,657)" d="m0 0h10l5 3 3 3v3h-5l-5-4h-6l-2 3 1 4 14 6 3 3v7l-6 7h-11l-5-3-2-4v-3l5 1 2 3 9 1 2-2v-5l-3-2-11-3v-2l-3-1-1-2v-6l2-4z" fill="#34404E"/>
<path transform="translate(1329,657)" d="m0 0h11l8 5 3 3v2h-5l-8-5h-6l-6 4-2 3v8l2 6 5 4h8l6-4 1-1h5l-2 4-6 5-2 1h-11l-7-4-5-7v-14l6-7z" fill="#313C4B"/>
<path transform="translate(712,665)" d="m0 0h8l15 3 10 5v3l-4 1h-26l-9 1-5-4 8-4h2v-2l-4-2z" fill="#9CAEAF"/>
<path transform="translate(1369,610)" d="m0 0h5l5 12 5 15 4-8 5-15 2-4h6l-3 10-4 9-4 12-3 4h-5l-3-4-5-15-3-7z" fill="#394751"/>
<path transform="translate(219,791)" d="m0 0 6 1v43l-3 3-1-4 1-3-5-8-3-14 1-10z" fill="#F3FCFE"/>
<path transform="translate(239,618)" d="m0 0 8 5 5 6v2l9 2 5 6-2 9-2 7-2 2-6-9-13-23-2-3z" fill="#EFF7F8"/>
<path transform="translate(1244,486)" d="m0 0h8l10 4 6 5 4 10v11l-3 7-6 7-4 3-7 2h-9l-9-4-5-5-4-8v-15l3-7 5-5 10-4zm0 3-7 3-6 5-4 8v11l3 7 4 5 8 4 7 1 10-3 6-5 5-10v-8l-4-9-4-5-9-4z" fill="#3A3246"/>
<path transform="translate(164,669)" d="m0 0h23l1 1v5l-4 1h-4l-1 26h-6l-1-1-1-25-8-1v-5z" fill="#EAEEF1"/>
<path transform="translate(1044,936)" d="m0 0 73 1v1h-35v2l-8 3-16 1-14 5h-2l-2 4-3 1 2-5z" fill="#5FB841"/>
<path transform="translate(1199,797)" d="m0 0h22l1 10-1 1h-29l-1-2v-8z" fill="#EB7D11"/>
<path transform="translate(1241,424)" d="m0 0h15l7 4 5 4 3 10v12l-4 8-7 7-5 2h-14l-10-6v-2h-2l-4-7-1-11 2-9 4-6 8-5zm3 2-10 5-6 7-1 3v14l3 6 5 5 7 3 9 1 10-4 6-8 2-4v-14l-5-8-5-4-6-2z" fill="#2C3249"/>
<path transform="translate(758,628)" d="m0 0 7 1 16 9 9 6 12 11 9 10 2 9-4-2-7-10-10-10-15-11-21-11z" fill="#CBEAF7"/>
<path transform="translate(204,675)" d="m0 0h6l4 4 1 10-3 5-2 2h-7l-4-5v-11z" fill="#E43E42"/>
<path transform="translate(1111,811)" d="m0 0 3 3 6 50v8h72v1l-35 1h-67l-2-2h31l-2-10-5-43z" fill="#EB7D11"/>
<path transform="translate(1204,746)" d="m0 0 2 4-1 3-19-1h-34l-4-1v-2h2v-2z" fill="#F2FBFE"/>
<path transform="translate(1413,550)" d="m0 0h2l11 26 4 10 20 1v1l6 1-1 2-3 1h-67v-1h37l1-3h2l1-5-13-31z" fill="#F2FBFE"/>
<path transform="translate(1288,578)" d="m0 0h2l3 9 8 4v1h-32v12h-4l-1-17 20-1 2-1z" fill="#FAFCFD"/>
<path transform="translate(1136,790)" d="m0 0 1 4-2 5v11l5 10 5 4 5 2h13l8-5h3l-2 4-7 5-4 1h-10l-10-4-7-8-3-7v-13l3-7z" fill="#F9FCFD"/>
<path transform="translate(746,679)" d="m0 0h65l7 2v1l-12 1h-49l-11-3z" fill="#FCFCFD"/>
<path transform="translate(567,709)" d="m0 0 2 1 6 27 9 40 9 43 6 25 1 10-2-3-7-30-7-32-8-37-8-35-2-8z" fill="#EB7D11"/>
<path transform="translate(337,821)" d="m0 0 2 1zm-1 1m-2 1 2 1-15 14-7 8-8 14-8 16-4 6-34 1h-20l-9-1v-1h40l1-16h1v16l20-1 10-21 9-14 9-11 10-9z" fill="#EB7D11"/>
<path transform="translate(1216,811)" d="m0 0h5v9h-28l-1-1v-6l7-1z" fill="#EB7D11"/>
<path transform="translate(1474,657)" d="m0 0h5v31h12v4h-17z" fill="#2F3A4A"/>
<path transform="translate(1359,657)" d="m0 0 5 1v14h17v1h-17v3h16v1h-16v15h-5z" fill="#2C3249"/>
<path transform="translate(1201,783)" d="m0 0h12l3 1 1 4 4 1-1 3-4-1-3 1h-17l-4-4 1-4z" fill="#EB7D11"/>
<path transform="translate(1244,549)" d="m0 0 10 1 6 3 8 7 2 5-1 4-5-10-8-5-4-1h-10l-6 3-6 7-2 5v12l4 8 8 5 15 2v1h-14l-8-4-7-8-1-4v-9l3-10 4-5 7-5z" fill="#2A3047"/>
<path transform="translate(1218,938)" d="m0 0h13l8 3 3 2 2-4v12l-7-1-15-6-1-5z" fill="#63B947"/>
<path transform="translate(389,852)" d="m0 0h20v1l-19 2-10 2-12 6-10 9-12 12-8 16-2 2 1-7 6-11 7-9 9-9 14-9 11-4z" fill="#3D3346"/>
<path transform="translate(562,660)" d="m0 0h2l3 14v7l-4 4h-47v-1l28-1 12-3h5l1-11-1-7z" fill="#F0FAFD"/>
<path transform="translate(253,712)" d="m0 0h2l-1 4-11 20-9 15h-75v-1l72-1 2-1 2-5 14-25z" fill="#B3C0C8"/>
<path transform="translate(861,664)" d="m0 0 7 1 15 6 13 4 1 3h-12l-20-8-6-2z" fill="#35434D"/>
<path transform="translate(1406,610)" d="m0 0h5v35h-5z" fill="#2E374A"/>
<path transform="translate(1358,610)" d="m0 0h5v35h-5z" fill="#334647"/>
<path transform="translate(507,541)" d="m0 0h19l8 4 6 5 5 8 3 11-1 4-4-4-3-10-6-9-3-1-2-3-2 1-10-4-10-1z" fill="#EDF7FC"/>
<path transform="translate(1395,610)" d="m0 0h6l-3 10-4 9-4 12-2-2-4 3-1-5 2-1 5-14z" fill="#3B4A52"/>
<path transform="translate(867,557)" d="m0 0 5 1 5 5 9 4 7 8 10 9 2 5 2 1-2 1-8-7-15-13-15-12z" fill="#E4EFF3"/>
<path transform="translate(1443,610)" d="m0 0h5v35l-1-2-4-2-1-4z" fill="#3C485A"/>
<path transform="translate(1270,593)" d="m0 0h27v2l-25 1-1 110h-1z" fill="#2D334A"/>
<path transform="translate(157,620)" d="m0 0h76v1l-65 1v1l-10 1-13 22h-3l2-5 11-19z" fill="#BAC5C9"/>
<path transform="translate(1331,614)" d="m0 0h9l5 3v6l-3 3-3 1h-8z" fill="#EBEFF0"/>
<path transform="translate(985,845)" d="m0 0h7l16 6 16 9 8 8 9 14 6 16 1 8-2-1-5-17-8-14-9-10-10-7-14-7-15-4z" fill="#F88B1C"/>
<path transform="translate(281,982)" d="m0 0h78v1l-124 2-1 2-1-4z" fill="#61BA43"/>
<path transform="translate(1269,441)" d="m0 0 2 1v12l-4 8-7 7-5 2h-14l-10-6v-2h-2l-4-7-1-11 2-1 3 14 3 4v2l5 2 10 3 8-1 8-5 5-9z" fill="#2A3047"/>
<path transform="translate(944,852)" d="m0 0 2 1-6 5-5 3-7 6-7 8-6 9-6 13-2 7h-2l2-9 5-12 9-13 10-10z" fill="#383246"/>
<path transform="translate(860,668)" d="m0 0 5 1 20 8v1h-27l1-7z" fill="#CBE0F2"/>
<path transform="translate(357,545)" d="m0 0h5v1h20l19-1h15v1l-13 1-19 1-7 3h-7l-4-1h-14l-4 1v-2z" fill="#D0F1FE"/>
<path transform="translate(745,235)" d="m0 0 4 1 1 5-4 7-4 2h-9v-4l10-9z" fill="#FCFCFD"/>
<path transform="translate(737,567)" d="m0 0h2l4 11-2 4-2-5-1 4-2 4-3-7-2-1 3 5-6-2h-5v2l-2-1 2-3-2-1 1-3 5-1h9z" fill="#C8D5DC"/>
<path transform="translate(455,872)" d="m0 0 4 2 9 11 5 11 3 9 2 15v19l6 1v1l-11 1 2-12v-14l-3-16-8-16-7-9z" fill="#F78B1C"/>
<path transform="translate(928,861)" d="m0 0 2 1-9 9-9 14-6 16-1 6-1 21-2-3v-13l3-17 1-5 8-14h2l1-4z" fill="#F99221"/>
<path transform="translate(621,651)" d="m0 0 2 2 6 18 2 3 5 1-1 5-3 2-5-3v-2h-2l-3-5 1-12-2-6z" fill="#EEF6F9"/>
<path transform="translate(588,148)" d="m0 0h2v2l-5 3-20 7-12 3-5 1v2l-10 2v-2l29-11z" fill="#D0F1FE"/>
<path transform="translate(910,815)" d="m0 0 2 1-20 20-10 14-13 23-4 3 2-4 11-20 9-13 9-10 7-8z" fill="#EB7D11"/>
<path transform="translate(239,774)" d="m0 0h2l4 6 1 4 1 31v30h-1l-1-24v-35l-4-1-4-5v-2h2z" fill="#F0FAFE"/>
<path transform="translate(814,678)" d="m0 0 5 1h20l2 1-1 3-20 1h-21v-1l17-2-5-1z" fill="#EDF8FE"/>
<path transform="translate(1173,789)" d="m0 0 4 1 3 7v15l-4 8-5 2 2-5 3-7v-11l-4-9z" fill="#F2FBFE"/>
<path transform="translate(143,645)" d="m0 0 2 2-17 29-4 7-3-2 20-35z" fill="#D9E0E2"/>
<path transform="translate(400,849)" d="m0 0 14 1v1l-20 1-16 4-12 6-5 4h-2v-2l2-1 1-3 9-5 10-3 3-1z" fill="#F98E1E"/>
<path transform="translate(1266,503)" d="m0 0h1v12l-4 7-8 7-7 4-3-1 2-4 10-5 6-8 2-11z" fill="#F08315"/>
<path transform="translate(1244,486)" d="m0 0h8l5 3-4 1h-9l-7 3-5 4-5 10-1 6h-1v-10l3-7 5-5 10-4z" fill="#353146"/>
<path transform="translate(1381,657)" d="m0 0h5v29l-2-2-1-7-2-5z" fill="#2C3449"/>
<path transform="translate(1335,627)" d="m0 0 6 2 9 14v2h-6l-8-13-3-2h2z" fill="#33414C"/>
<path transform="translate(718,604)" d="m0 0h5l-1 6-3 2h-8l-4-3v-4z" fill="#AB514A"/>
<path transform="translate(1192,555)" d="m0 0 4 1 5 4 6 12 2 7v4h-2l-7-16-6-9z" fill="#E6F1F6"/>
<path transform="translate(1226,507)" d="m0 0h1l2 13 5 7 8 4 11 1-1 3h-9l-9-4-5-5-4-8z" fill="#433345"/>
<path transform="translate(1267,504)" d="m0 0h2l1 3v8l-5 10-8 6-7 1 5-4 8-7 3-6z" fill="#FAA931"/>
<path transform="translate(1012,164)" d="m0 0 9 3 21 9-1 2-5-2-12-2-7-3-5-5z" fill="#D0F1FE"/>
<path transform="translate(967,845)" d="m0 0h15l7 1v2l-27 1-16 4v-2l15-5z" fill="#453445"/>
<path transform="translate(961,843)" d="m0 0 19 1v1l-19 2-21 7v-4l9-4 7-1z" fill="#F98D1E"/>
<path transform="translate(1288,578)" d="m0 0h2l3 9 8 4v1h-17v-6l2-1z" fill="#EDF7FB"/>
<path transform="translate(1265,448)" d="m0 0h2l-1 8-4 6-8 5 1 2-8 1-5-1v-1l6-2 11-7 4-5z" fill="#983F3F"/>
<path transform="translate(342,549)" d="m0 0h2v2h-2l-2 6-7 11-9 17-1-3 11-23 6-8z" fill="#FBFCFD"/>
<path transform="translate(1229,561)" d="m0 0 1 2-2 5v12l4 8 8 5 15 2v1h-14l-8-4-7-8-1-4v-9l3-9z" fill="#2E354B"/>
<path transform="translate(394,851)" d="m0 0h20l15 4 3 2-4 1-13-2-6-2v-2h-15z" fill="#3F3649"/>
<path transform="translate(1363,659)" d="m0 0h1v13h17v1h-17v3h16v1h-16v12h-1l-2-11v-5l1-5-1-2h2z" fill="#5D8B60"/>
<path transform="translate(267,686)" d="m0 0 2 1-1 6-12 20-2-1 2-6 10-18z" fill="#CED9E0"/>
<path transform="translate(1443,610)" d="m0 0h4v20l-3 2-1-8z" fill="#2A3047"/>
<path transform="translate(702,667)" d="m0 0h10l-1 3-8 4 3 3 3 2h-10l-1-5 3-3h2z" fill="#CCE3F4"/>
<path transform="translate(727,668)" d="m0 0h8l10 5v3h-10l2-2-10-5z" fill="#D0E3F2"/>
<path transform="translate(218,601)" d="m0 0 5 1 4 1h8l-2 2-17 2-4-2v-2z" fill="#F3FCFF"/>
<path transform="translate(1268,440)" d="m0 0h1v14l-6 10-6 4h-5l5-4 5-2 2-5 3-5z" fill="#BE3E40"/>
<path transform="translate(558,634)" d="m0 0 2 3 3 16v5l-4-4-1-11-2-4 1-4z" fill="#ECF7FC"/>
<path transform="translate(693,580)" d="m0 0 7 1 2 3-1 5-1 1h-6v-5l2-2z" fill="#4A3646"/>
<path transform="translate(147,730)" d="m0 0 4 4 7 13 4 2h-3l-1 2-2-4h-2l-8-14z" fill="#E6E8E2"/>
<path transform="translate(237,675)" d="m0 0 6 1 1 5-3 3-4 1-1-1v-8z" fill="#E43E42"/>
<path transform="translate(689,576)" d="m0 0h14l-1 6-7-1v1h-5v-4l-2-1z" fill="#C6D3DA"/>
<path transform="translate(239,774)" d="m0 0h2l4 6 1 7-5-2-4-5v-2h2z" fill="#EFF8FC"/>
<path transform="translate(731,577)" d="m0 0 4 2 1 6-5 3-3-2v-6h3v-1z" fill="#4D3645"/>
<path transform="translate(337,821)" d="m0 0 2 1zm-1 1m-2 1 2 1-15 14-4 4-2-1 11-12z" fill="#E97B11"/>
<path transform="translate(1048,913)" d="m0 0h1l1 21 2 2-7 1z" fill="#F98D1E"/>
<path transform="translate(910,815)" d="m0 0 2 1-20 20-2-1 15-16z" fill="#E97B11"/>
<path transform="translate(233,621)" d="m0 0 4 4 4 8-3 1-5-9v-2h-18v-1z" fill="#BCC8CD"/>
<path transform="translate(1385,661)" d="m0 0h1v25l-2-2-1-7-1-5h1z" fill="#3E485C"/>
<path transform="translate(507,541)" d="m0 0h19l2 1 1 5-10-3-2-1-10-1z" fill="#F0FBFE"/>
<path transform="translate(121,682)" d="m0 0h2l3 9 2 3v5l-4-4-4-7v-5z" fill="#DEE5E7"/>
<path transform="translate(850,676)" d="m0 0 1 3-3 2 15 1v1h-23l2-4 8-1z" fill="#F3FCFE"/>
<path transform="translate(1255,551)" d="m0 0 5 2 8 7 2 5-1 4-5-10-8-5-4-2z" fill="#2F364C"/>
<path transform="translate(1414,926)" d="m0 0 4 1 7 6 1 4-5-2-6-7z" fill="#4EA131"/>
<path transform="translate(1335,627)" d="m0 0 6 2 2 4-1 2-4 1-2-4-3-2h2z" fill="#404E5B"/>
<path transform="translate(913,884)" d="m0 0 1 2-5 11-2 7h-2l2-9 4-10z" fill="#423345"/>
<path transform="translate(1052,432)" d="m0 0h8l1 4-1 2-5-1-3-2z" fill="#D0E8FB"/>
<path transform="translate(455,872)" d="m0 0 4 2 9 11 3 9-3-3-6-10-7-8z" fill="#F99221"/>
<path transform="translate(275,588)" d="m0 0h1l-1 7-2 5-1-2-3-1 3-7z" fill="#F3FCFF"/>
<path transform="translate(128,696)" d="m0 0 4 5 4 7v2l-4-1-5-10z" fill="#E2E2D9"/>
<path transform="translate(1383,683)" d="m0 0 3 3v6h-5v-8z" fill="#2E354B"/>
<path transform="translate(267,686)" d="m0 0 2 1-1 6-4 6h-2l1-5z" fill="#CEDAE2"/>
<path transform="translate(239,633)" d="m0 0 3 1 6 10-2 3-7-12z" fill="#DBE1DE"/>
<path transform="translate(667,577)" d="m0 0 3 1 3 10 1 4h-2l-4-7-2-7z" fill="#F2FAFB"/>
<path transform="translate(1252,526)" d="m0 0 5 1-5 4-4 2-3-1 2-4z" fill="#F5881A"/>
<path transform="translate(143,645)" d="m0 0 2 2-6 10h-2l1-6 3-5z" fill="#DCE2DF"/>
<path transform="translate(799,512)" d="m0 0 2 1 1 6-10-3-1-2z" fill="#E8F4FA"/>
<path transform="translate(726,576)" d="m0 0h6l1 4 1 2-6-2h-5v2l-2-1z" fill="#9CA5AE"/>
<path transform="translate(944,852)" d="m0 0 2 1-6 5-5 3-3 3-2-1 5-6z" fill="#3A3245"/>
<path transform="translate(805,663)" d="m0 0 3 1v2l3 1 2 7-4-2-4-6z" fill="#E2F0F7"/>
<path transform="translate(1245,486)" d="m0 0h7l5 3-4 1-10-1z" fill="#303349"/>
<path transform="translate(1187,435)" d="m0 0h21v1h-18l2 4-5-1z" fill="#2C3447"/>
<path transform="translate(389,852)" d="m0 0h20v1l-23 2z" fill="#303046"/>
<path transform="translate(671,590)" d="m0 0 1 2h2l1-2 3 3v2l3 1-1 3-6-4-3-1z" fill="#D5DAD6"/>
<path transform="translate(724,582)" d="m0 0h3l2 4 3 3-7-1-3-4z" fill="#E3F0F7"/>
<path transform="translate(476,933)" d="m0 0 2 3v3l6 1v1l-11 1 2-8z" fill="#F79124"/>
<path transform="translate(1143,744)" d="m0 0 7 2v3l-5 1-3-2z" fill="#F8FCFD"/>
<path transform="translate(253,712)" d="m0 0h2l-1 4-4 8h-2l1-6z" fill="#D7E0E6"/>
<path transform="translate(157,620)" d="m0 0h3v2h8v1l-10 1-3 3h-2l2-5z" fill="#BECCD4"/>
<path transform="translate(1187,548)" d="m0 0h18v1l-14 1 1 3-5-1z" fill="#2B3649"/>
<path transform="translate(361,865)" d="m0 0m-2 1 2 1-7 8-7 5 2-4z" fill="#493748"/>
<path transform="translate(713,666)" d="m0 0 10 1-3 2-9 1z" fill="#FED17D"/>
<path transform="translate(1348,928)" d="m0 0 4 2 4 4-1 4-7-8z" fill="#4EA430"/>
<path transform="translate(463,885)" d="m0 0h3l6 13-2 1z" fill="#473444"/>
<path transform="translate(862,639)" d="m0 0h4v6l-2 2-2-2h-1v-5z" fill="#2E394B"/>
<path transform="translate(1227,939)" d="m0 0h8l3 2v3l-5-1-6-3z" fill="#4BA12D"/>
<path transform="translate(1041,892)" d="m0 0h2l3 8v5l-2-2v-3h-2z" fill="#393246"/>
<path transform="translate(236,741)" d="m0 0h2l-1 5-3 5h-6l3-3h2l2-5z" fill="#D6E2EB"/>
<path transform="translate(153,740)" d="m0 0 3 3 2 4 4 2h-3l-1 2-2-4h-2l-2-5z" fill="#CCD5D7"/>
<path transform="translate(247,645)" d="m0 0h2l4 7-1 4-4-5z" fill="#E5E6DF"/>
<path transform="translate(1279,634)" d="m0 0h2v8h-4v-6z" fill="#F3FCFF"/>
<path transform="translate(558,634)" d="m0 0 2 3 1 8-4-3-1-6z" fill="#EBF6FB"/>
<path transform="translate(334,518)" d="m0 0 3 1h-2v2l-9 2v-4z" fill="#E6EDEC"/>
<path transform="translate(265,678)" d="m0 0h3l2 4v7l-2-2z" fill="#EBEADD"/>
<path transform="translate(136,655)" d="m0 0 2 4-4 7-2-4z" fill="#D1DBDF"/>
<path transform="translate(271,606)" d="m0 0 5 5-1 4-3 1-1-2z" fill="#F1FBFE"/>
</svg>
